<svg width="210" height="23" viewBox="0 0 210 23" fill="none" xmlns="http://www.w3.org/2000/svg">
<path d="M11.3945 16.5742H13.6445C13.5273 17.6523 13.2188 18.6172 12.7188 19.4688C12.2188 20.3203 11.5117 20.9961 10.5977 21.4961C9.68359 21.9883 8.54297 22.2344 7.17578 22.2344C6.17578 22.2344 5.26562 22.0469 4.44531 21.6719C3.63281 21.2969 2.93359 20.7656 2.34766 20.0781C1.76172 19.3828 1.30859 18.5508 0.988281 17.582C0.675781 16.6055 0.519531 15.5195 0.519531 14.3242V12.625C0.519531 11.4297 0.675781 10.3477 0.988281 9.37891C1.30859 8.40234 1.76562 7.56641 2.35938 6.87109C2.96094 6.17578 3.68359 5.64062 4.52734 5.26562C5.37109 4.89062 6.32031 4.70312 7.375 4.70312C8.66406 4.70312 9.75391 4.94531 10.6445 5.42969C11.5352 5.91406 12.2266 6.58594 12.7188 7.44531C13.2188 8.29688 13.5273 9.28516 13.6445 10.4102H11.3945C11.2852 9.61328 11.082 8.92969 10.7852 8.35938C10.4883 7.78125 10.0664 7.33594 9.51953 7.02344C8.97266 6.71094 8.25781 6.55469 7.375 6.55469C6.61719 6.55469 5.94922 6.69922 5.37109 6.98828C4.80078 7.27734 4.32031 7.6875 3.92969 8.21875C3.54688 8.75 3.25781 9.38672 3.0625 10.1289C2.86719 10.8711 2.76953 11.6953 2.76953 12.6016V14.3242C2.76953 15.1602 2.85547 15.9453 3.02734 16.6797C3.20703 17.4141 3.47656 18.0586 3.83594 18.6133C4.19531 19.168 4.65234 19.6055 5.20703 19.9258C5.76172 20.2383 6.41797 20.3945 7.17578 20.3945C8.13672 20.3945 8.90234 20.2422 9.47266 19.9375C10.043 19.6328 10.4727 19.1953 10.7617 18.625C11.0586 18.0547 11.2695 17.3711 11.3945 16.5742ZM23.043 6.44922L17.3945 22H15.0859L21.5898 4.9375H23.0781L23.043 6.44922ZM27.7773 22L22.1172 6.44922L22.082 4.9375H23.5703L30.0977 22H27.7773ZM27.4844 15.6836V17.5352H17.8984V15.6836H27.4844ZM41.4766 17.6875C41.4766 17.2891 41.4141 16.9375 41.2891 16.6328C41.1719 16.3203 40.9609 16.0391 40.6562 15.7891C40.3594 15.5391 39.9453 15.3008 39.4141 15.0742C38.8906 14.8477 38.2266 14.6172 37.4219 14.3828C36.5781 14.1328 35.8164 13.8555 35.1367 13.5508C34.457 13.2383 33.875 12.8828 33.3906 12.4844C32.9062 12.0859 32.5352 11.6289 32.2773 11.1133C32.0195 10.5977 31.8906 10.0078 31.8906 9.34375C31.8906 8.67969 32.0273 8.06641 32.3008 7.50391C32.5742 6.94141 32.9648 6.45312 33.4727 6.03906C33.9883 5.61719 34.6016 5.28906 35.3125 5.05469C36.0234 4.82031 36.8164 4.70312 37.6914 4.70312C38.9727 4.70312 40.0586 4.94922 40.9492 5.44141C41.8477 5.92578 42.5312 6.5625 43 7.35156C43.4688 8.13281 43.7031 8.96875 43.7031 9.85938H41.4531C41.4531 9.21875 41.3164 8.65234 41.043 8.16016C40.7695 7.66016 40.3555 7.26953 39.8008 6.98828C39.2461 6.69922 38.543 6.55469 37.6914 6.55469C36.8867 6.55469 36.2227 6.67578 35.6992 6.91797C35.1758 7.16016 34.7852 7.48828 34.5273 7.90234C34.2773 8.31641 34.1523 8.78906 34.1523 9.32031C34.1523 9.67969 34.2266 10.0078 34.375 10.3047C34.5312 10.5938 34.7695 10.8633 35.0898 11.1133C35.418 11.3633 35.832 11.5938 36.332 11.8047C36.8398 12.0156 37.4453 12.2188 38.1484 12.4141C39.1172 12.6875 39.9531 12.9922 40.6562 13.3281C41.3594 13.6641 41.9375 14.043 42.3906 14.4648C42.8516 14.8789 43.1914 15.3516 43.4102 15.8828C43.6367 16.4062 43.75 17 43.75 17.6641C43.75 18.3594 43.6094 18.9883 43.3281 19.5508C43.0469 20.1133 42.6445 20.5938 42.1211 20.9922C41.5977 21.3906 40.9688 21.6992 40.2344 21.918C39.5078 22.1289 38.6953 22.2344 37.7969 22.2344C37.0078 22.2344 36.2305 22.125 35.4648 21.9062C34.707 21.6875 34.0156 21.3594 33.3906 20.9219C32.7734 20.4844 32.2773 19.9453 31.9023 19.3047C31.5352 18.6562 31.3516 17.9062 31.3516 17.0547H33.6016C33.6016 17.6406 33.7148 18.1445 33.9414 18.5664C34.168 18.9805 34.4766 19.3242 34.8672 19.5977C35.2656 19.8711 35.7148 20.0742 36.2148 20.207C36.7227 20.332 37.25 20.3945 37.7969 20.3945C38.5859 20.3945 39.2539 20.2852 39.8008 20.0664C40.3477 19.8477 40.7617 19.5352 41.043 19.1289C41.332 18.7227 41.4766 18.2422 41.4766 17.6875ZM52.9492 6.44922L47.3008 22H44.9922L51.4961 4.9375H52.9844L52.9492 6.44922ZM57.6836 22L52.0234 6.44922L51.9883 4.9375H53.4766L60.0039 22H57.6836ZM57.3906 15.6836V17.5352H47.8047V15.6836H57.3906ZM75.4141 4.9375V22H71.9102V4.9375H75.4141ZM80.6641 4.9375V7.69141H66.7422V4.9375H80.6641ZM92.0898 4.9375H95.5938V16.2109C95.5938 17.5234 95.3125 18.6289 94.75 19.5273C94.1953 20.4258 93.4258 21.1016 92.4414 21.5547C91.4648 22.0078 90.3398 22.2344 89.0664 22.2344C87.793 22.2344 86.6602 22.0078 85.668 21.5547C84.6836 21.1016 83.9102 20.4258 83.3477 19.5273C82.793 18.6289 82.5156 17.5234 82.5156 16.2109V4.9375H86.0312V16.2109C86.0312 16.9766 86.1523 17.6016 86.3945 18.0859C86.6367 18.5703 86.9844 18.9258 87.4375 19.1523C87.8984 19.3789 88.4414 19.4922 89.0664 19.4922C89.707 19.4922 90.25 19.3789 90.6953 19.1523C91.1484 18.9258 91.4922 18.5703 91.7266 18.0859C91.9688 17.6016 92.0898 16.9766 92.0898 16.2109V4.9375ZM109.938 19.2578V22H100.855V19.2578H109.938ZM102.004 4.9375V22H98.4883V4.9375H102.004ZM108.754 11.8867V14.5586H100.855V11.8867H108.754ZM109.926 4.9375V7.69141H100.855V4.9375H109.926ZM102.812 3.92969L105.109 0.320312H108.777L105.555 3.92969H102.812ZM118.434 13.3516V16H111.812V13.3516H118.434ZM129.086 4.9375V22H125.582V4.9375H129.086ZM134.336 4.9375V7.69141H120.414V4.9375H134.336ZM140.078 4.9375V22H136.574V4.9375H140.078ZM144.977 4.9375H147.953L152.336 17.4648L156.719 4.9375H159.695L153.531 22H151.141L144.977 4.9375ZM143.371 4.9375H146.336L146.875 17.1484V22H143.371V4.9375ZM158.336 4.9375H161.312V22H157.797V17.1484L158.336 4.9375ZM171.074 14.5117H166.691L166.668 12.0977H170.348C170.996 12.0977 171.527 12.0156 171.941 11.8516C172.355 11.6797 172.664 11.4336 172.867 11.1133C173.078 10.7852 173.184 10.3867 173.184 9.91797C173.184 9.38672 173.082 8.95703 172.879 8.62891C172.684 8.30078 172.375 8.0625 171.953 7.91406C171.539 7.76562 171.004 7.69141 170.348 7.69141H167.91V22H164.395V4.9375H170.348C171.34 4.9375 172.227 5.03125 173.008 5.21875C173.797 5.40625 174.465 5.69141 175.012 6.07422C175.559 6.45703 175.977 6.94141 176.266 7.52734C176.555 8.10547 176.699 8.79297 176.699 9.58984C176.699 10.293 176.539 10.9414 176.219 11.5352C175.906 12.1289 175.41 12.6133 174.73 12.9883C174.059 13.3633 173.18 13.5703 172.094 13.6094L171.074 14.5117ZM170.922 22H165.73L167.102 19.2578H170.922C171.539 19.2578 172.043 19.1602 172.434 18.9648C172.824 18.7617 173.113 18.4883 173.301 18.1445C173.488 17.8008 173.582 17.4062 173.582 16.9609C173.582 16.4609 173.496 16.0273 173.324 15.6602C173.16 15.293 172.895 15.0117 172.527 14.8164C172.16 14.6133 171.676 14.5117 171.074 14.5117H167.688L167.711 12.0977H171.93L172.738 13.0469C173.777 13.0312 174.613 13.2148 175.246 13.5977C175.887 13.9727 176.352 14.4609 176.641 15.0625C176.938 15.6641 177.086 16.3086 177.086 16.9961C177.086 18.0898 176.848 19.0117 176.371 19.7617C175.895 20.5039 175.195 21.0625 174.273 21.4375C173.359 21.8125 172.242 22 170.922 22ZM189.145 4.9375H192.648V16.2109C192.648 17.5234 192.367 18.6289 191.805 19.5273C191.25 20.4258 190.48 21.1016 189.496 21.5547C188.52 22.0078 187.395 22.2344 186.121 22.2344C184.848 22.2344 183.715 22.0078 182.723 21.5547C181.738 21.1016 180.965 20.4258 180.402 19.5273C179.848 18.6289 179.57 17.5234 179.57 16.2109V4.9375H183.086V16.2109C183.086 16.9766 183.207 17.6016 183.449 18.0859C183.691 18.5703 184.039 18.9258 184.492 19.1523C184.953 19.3789 185.496 19.4922 186.121 19.4922C186.762 19.4922 187.305 19.3789 187.75 19.1523C188.203 18.9258 188.547 18.5703 188.781 18.0859C189.023 17.6016 189.145 16.9766 189.145 16.2109V4.9375ZM202.223 7.85547L197.582 22H193.844L200.184 4.9375H202.562L202.223 7.85547ZM206.078 22L201.426 7.85547L201.051 4.9375H203.453L209.828 22H206.078ZM205.867 15.6484V18.4023H196.855V15.6484H205.867ZM200.242 3.97656L202.539 0.367188H206.207L202.984 3.97656H200.242Z" fill="black"/>
</svg>
