<svg width="246" height="111" viewBox="0 0 246 111" fill="none" xmlns="http://www.w3.org/2000/svg">
<path fill-rule="evenodd" clip-rule="evenodd" d="M109.052 24.3328L144.989 84.4409H73.1243L109.052 24.3328Z" fill="#FDDB00"/>
<path fill-rule="evenodd" clip-rule="evenodd" d="M45.5879 24.3328L84.5429 84.4409H45.5879V24.3328Z" fill="#01D101"/>
<path fill-rule="evenodd" clip-rule="evenodd" d="M78.5991 75.2648L73.1223 84.4314H84.5426L78.5991 75.2648Z" fill="#4E4E4E"/>
<path fill-rule="evenodd" clip-rule="evenodd" d="M109.051 62.401C121.183 62.401 131.032 72.2754 131.032 84.4373H87.0691C87.0691 72.2754 96.919 62.401 109.051 62.401Z" fill="#193DFF"/>
<path fill-rule="evenodd" clip-rule="evenodd" d="M69.1504 24.3328C79.0658 24.3328 87.1143 32.4013 87.1143 42.3413C87.1143 52.2814 79.0658 60.3499 69.1504 60.3499L51.0818 56.8265L45.5859 24.3328H69.1504Z" fill="#193DFF"/>
<path fill-rule="evenodd" clip-rule="evenodd" d="M225.199 64.1702H245.996V84.4349H225.199V64.1702Z" fill="#193DFF"/>
<path fill-rule="evenodd" clip-rule="evenodd" d="M204.412 64.1702H225.209V84.4349H204.412V64.1702Z" fill="#4E4E4E"/>
<path fill-rule="evenodd" clip-rule="evenodd" d="M204.412 24.4228H225.209V64.168H204.412V24.4228Z" fill="#FDDB00"/>
<path fill-rule="evenodd" clip-rule="evenodd" d="M180.06 24.439H200.856V84.4491H180.06V24.439Z" fill="#01D101"/>
<path fill-rule="evenodd" clip-rule="evenodd" d="M149.15 80.7075C144.435 77.2222 141.377 71.6172 141.377 65.2961C141.377 58.9749 144.435 53.3699 149.15 49.8847V46.1608H160.465C171 46.1608 179.553 54.7354 179.553 65.2961C179.553 75.8568 171 84.4314 160.465 84.4314H149.15V80.7075Z" fill="#FDDB00"/>
<path fill-rule="evenodd" clip-rule="evenodd" d="M155.57 42.4273L154.836 46.1608V50.4385H147.445C140.263 50.4385 134.424 44.5853 134.424 37.3856C134.424 30.186 140.263 24.3328 147.445 24.3328H154.836L155.57 28.0662V42.4273Z" fill="#01D101"/>
<path fill-rule="evenodd" clip-rule="evenodd" d="M154.838 24.3269H176.517V46.1601H154.838V24.3269Z" fill="#193DFF"/>
<path fill-rule="evenodd" clip-rule="evenodd" d="M134.421 50.4343H154.835V84.4374H134.421V50.4343Z" fill="#FF0000"/>
<path fill-rule="evenodd" clip-rule="evenodd" d="M27.6221 48.4142C37.5375 48.4142 45.586 56.4828 45.586 66.4228C45.586 76.3629 37.5375 84.4314 27.6221 84.4314H0V48.4142H27.6221Z" fill="#FF0000"/>
<path fill-rule="evenodd" clip-rule="evenodd" d="M25.7173 24.3328C32.3466 24.3328 37.7281 29.7277 37.7281 36.3735C37.7281 43.0193 32.3466 48.4142 25.7173 48.4142H11.2966L19.9262 24.3328H25.7173Z" fill="#193DFF"/>
<path d="M25.7593 5.32623V7.7763H28.8408C28.5752 8.52198 27.7782 9.10786 26.5562 9.10786C24.8029 9.10786 23.6341 7.82956 23.6341 6.12517C23.6341 4.36751 24.856 3.03596 26.5031 3.03596C27.5657 3.03596 28.522 3.56859 29.0002 4.47405L31.6567 2.87618C30.5941 1.11852 28.6283 0 26.5562 0C23.209 0 20.5525 2.66313 20.5525 6.07192C20.5525 9.42745 23.209 12.0906 26.6093 12.0906C29.7972 12.0906 32.188 9.74701 32.188 6.17843V5.27298L25.7593 5.32623Z" fill="black"/>
<path d="M42.7612 12.1438C46.1084 12.1438 48.7649 9.4807 48.7649 6.12517C48.7649 2.76965 46.1084 0.106537 42.7612 0.106537C39.414 0.106537 36.7043 2.76965 36.7043 6.12517C36.7043 9.4807 39.3609 12.1438 42.7612 12.1438ZM42.7612 8.94809C41.2204 8.94809 40.0515 7.72304 40.0515 6.12517C40.0515 4.47404 41.2204 3.30228 42.7612 3.30228C44.2488 3.30228 45.4177 4.5273 45.4177 6.12517C45.4177 7.72304 44.2488 8.94809 42.7612 8.94809Z" fill="black"/>
<path d="M60.2939 0.372833L57.5843 7.45672L54.9278 0.372833H51.5806L56.0435 11.8775H59.1251L63.6411 0.372833H60.2939Z" fill="black"/>
<path d="M75.8079 3.14249V0.31958H67.5728V11.8242H75.8079V9.00135H70.7074V7.29695H74.1078V4.90014H70.7074V3.19574L75.8079 3.14249Z" fill="black"/>
<path d="M87.1247 11.8775H90.5781L88.0279 7.45672C89.2498 6.81757 90.0468 5.59254 90.0468 4.1012C90.0468 1.9707 88.3467 0.372833 86.0621 0.372833H80.4834V11.8775H83.5649V7.88283H84.84L87.1247 11.8775ZM83.5649 3.08922H85.7433C86.4871 3.08922 86.9121 3.62184 86.9121 4.15446C86.9121 4.68709 86.434 5.21971 85.7433 5.21971H83.5649V3.08922Z" fill="black"/>
<path d="M102.001 0.372833V6.44474L97.3788 0.372833H94.7754V11.8775H97.8569V5.8056L102.479 11.8775H105.083V0.372833H102.001Z" fill="black"/>
<path d="M115.496 12.1438C118.843 12.1438 121.5 9.4807 121.5 6.12517C121.5 2.76965 118.843 0.106537 115.496 0.106537C112.149 0.106537 109.439 2.76965 109.439 6.12517C109.439 9.4807 112.096 12.1438 115.496 12.1438ZM115.496 8.94809C113.955 8.94809 112.787 7.72304 112.787 6.12517C112.787 4.47404 113.955 3.30228 115.496 3.30228C116.984 3.30228 118.153 4.5273 118.153 6.12517C118.153 7.72304 116.984 8.94809 115.496 8.94809Z" fill="black"/>
<path d="M141.636 3.08923V0.31958H133.401V11.8242H136.536V7.61653H139.936V5.00668H136.536V3.03596H141.636V3.08923Z" fill="black"/>
<path d="M154.388 3.14249V0.31958H146.152V11.8242H154.388V9.00135H149.287V7.29695H152.687V4.90014H149.287V3.19574L154.388 3.14249Z" fill="black"/>
<path d="M163.791 0.372833H159.116V11.8775H163.791C167.298 11.8775 169.901 9.42742 169.901 6.12516C169.901 2.82289 167.298 0.372833 163.791 0.372833ZM163.632 8.89481H162.251V3.35553H163.632C165.438 3.35553 166.714 4.42076 166.714 6.12516C166.714 7.77629 165.438 8.89481 163.632 8.89481Z" fill="black"/>
<path d="M182.546 3.14249V0.31958H174.311V11.8242H182.546V9.00135H177.446V7.29695H180.846V4.90014H177.446V3.19574L182.546 3.14249Z" fill="black"/>
<path d="M193.863 11.8775H197.317L194.766 7.45672C195.988 6.81757 196.785 5.59254 196.785 4.1012C196.785 1.9707 195.085 0.372833 192.801 0.372833H187.222V11.8775H190.303V7.88283H191.579L193.863 11.8775ZM190.303 3.08922H192.482C193.226 3.08922 193.651 3.62184 193.651 4.15446C193.651 4.68709 193.173 5.21971 192.482 5.21971H190.303V3.08922Z" fill="black"/>
<path d="M210.015 11.8775H213.203L208.368 0.372833H205.446L200.664 11.8775H203.905L204.702 9.90679H209.271L210.015 11.8775ZM205.764 7.13716L206.933 4.31424L208.102 7.13716H205.764Z" fill="black"/>
<path d="M220.428 8.89482V0.31958H217.187V11.8242H225.263V8.84155H220.428V8.89482Z" fill="black"/>
<path fill-rule="evenodd" clip-rule="evenodd" d="M134.424 66.7665L144.987 84.4409H134.424V66.7665Z" fill="#4E4E4E"/>
<path fill-rule="evenodd" clip-rule="evenodd" d="M24.7042 106.462C25.1739 106.462 25.5653 106.383 25.8785 106.187C26.1916 105.991 26.4264 105.756 26.6222 105.481C26.8179 105.206 26.9353 104.853 27.0136 104.461C27.0919 104.068 27.131 103.676 27.131 103.283V98.7709H28.5401V103.283C28.5401 103.872 28.4618 104.461 28.3444 105.01C28.1878 105.559 27.9921 106.03 27.679 106.423C27.3659 106.815 26.9744 107.129 26.5047 107.364C26.035 107.6 25.4479 107.717 24.7434 107.717C24.0388 107.717 23.4517 107.6 22.9428 107.364C22.4731 107.129 22.0817 106.776 21.7686 106.383C21.4555 105.991 21.2597 105.481 21.1032 104.971C20.9858 104.421 20.9075 103.872 20.9075 103.323V98.8102H22.3166V103.323C22.3166 103.715 22.3557 104.107 22.434 104.5C22.5123 104.892 22.6297 105.206 22.8254 105.52C23.0211 105.834 23.256 106.069 23.5691 106.226C23.8822 106.383 24.2345 106.462 24.7042 106.462Z" fill="black"/>
<path fill-rule="evenodd" clip-rule="evenodd" d="M34.4504 101.439V107.678H33.0413V98.8102H34.1372L39.1865 105.206V98.8102H40.5956V107.678H39.4214L34.4504 101.439Z" fill="black"/>
<path fill-rule="evenodd" clip-rule="evenodd" d="M45.2537 98.8102H46.6628V107.678H45.2537V98.8102Z" fill="black"/>
<path fill-rule="evenodd" clip-rule="evenodd" d="M53.9041 98.8102H55.1175L58.6011 107.678H57.1137L56.1743 105.285H52.769L51.8296 107.678H50.3813L53.9041 98.8102ZM55.9003 104.225L54.4912 100.419L53.0039 104.225H55.9003ZM55.2741 97.6723C55.0784 97.6723 54.9218 97.633 54.7652 97.5938C54.6087 97.5545 54.4912 97.4761 54.3738 97.3976C54.2564 97.3191 54.139 97.2799 54.0215 97.2014C53.9041 97.1621 53.7867 97.1229 53.6301 97.1229C53.4735 97.1229 53.3953 97.1621 53.317 97.2014C53.2387 97.2406 53.1604 97.3191 53.1213 97.3976C53.0821 97.4761 53.043 97.5545 53.043 97.5938V97.7115H52.2601C52.2601 97.633 52.2993 97.5153 52.3384 97.3583C52.3776 97.2014 52.4559 97.0444 52.5733 96.8875C52.6907 96.7305 52.8081 96.5736 52.9647 96.4558C53.1213 96.3381 53.3561 96.2596 53.591 96.2596C53.7867 96.2596 53.9433 96.2989 54.0607 96.3381C54.2172 96.3774 54.3347 96.4558 54.4521 96.5343C54.5695 96.6128 54.6869 96.652 54.8044 96.7305C54.9218 96.7698 55.0784 96.809 55.1958 96.809C55.3523 96.809 55.4698 96.7698 55.5481 96.7305C55.6263 96.6913 55.7046 96.6128 55.7438 96.5343C55.7829 96.4558 55.8221 96.3774 55.8221 96.3381V96.2204H56.6049C56.6049 96.2596 56.5658 96.3774 56.5266 96.5343C56.4875 96.6913 56.4092 96.8482 56.2917 97.0052C56.1743 97.1621 56.0569 97.3191 55.8612 97.4368C55.7829 97.5938 55.5481 97.6723 55.2741 97.6723Z" fill="black"/>
<path fill-rule="evenodd" clip-rule="evenodd" d="M65.6858 107.717C65.0595 107.717 64.4724 107.6 63.9636 107.325C63.4547 107.09 62.985 106.736 62.6327 106.305C62.2413 105.873 61.9673 105.402 61.7716 104.853C61.5759 104.304 61.4585 103.754 61.4585 103.205C61.4585 102.616 61.5759 102.067 61.7716 101.518C62.0065 100.968 62.2805 100.497 62.6719 100.066C63.0633 99.6342 63.4939 99.3203 64.0027 99.0848C64.5116 98.8494 65.0987 98.7317 65.6858 98.7317C66.3121 98.7317 66.8992 98.8494 67.408 99.1241C67.9169 99.3988 68.3866 99.7127 68.7389 100.144C69.0912 100.576 69.4043 101.047 69.6 101.596C69.7957 102.145 69.9131 102.695 69.9131 103.244C69.9131 103.833 69.7957 104.382 69.6 104.931C69.4043 105.481 69.0911 105.952 68.6997 106.344C68.3083 106.736 67.8777 107.09 67.3298 107.325C66.8601 107.6 66.3121 107.717 65.6858 107.717ZM62.8676 103.244C62.8676 103.676 62.9459 104.068 63.0633 104.461C63.1807 104.853 63.3764 105.206 63.6113 105.481C63.8461 105.795 64.1593 106.03 64.5115 106.187C64.8638 106.383 65.2552 106.462 65.6858 106.462C66.1164 106.462 66.5469 106.383 66.8601 106.187C67.1732 105.991 67.4863 105.755 67.7212 105.442C67.956 105.128 68.1517 104.775 68.2692 104.421C68.3866 104.029 68.4649 103.637 68.4649 103.244C68.4649 102.813 68.3866 102.42 68.2692 102.028C68.1517 101.635 67.956 101.282 67.7212 101.008C67.4863 100.733 67.1732 100.458 66.8209 100.301C66.4686 100.144 66.0772 100.027 65.6858 100.027C65.2552 100.027 64.8247 100.105 64.4724 100.301C64.1201 100.497 63.8462 100.733 63.5722 101.047C63.2982 101.361 63.1416 101.675 63.0242 102.067C62.9459 102.459 62.8676 102.852 62.8676 103.244Z" fill="black"/>
<path fill-rule="evenodd" clip-rule="evenodd" d="M85.8438 106.423V107.639H79.7769V98.7709H85.7264V99.9874H81.186V102.499H85.1393V103.676H81.186V106.383H85.8438V106.423Z" fill="black"/>
<path fill-rule="evenodd" clip-rule="evenodd" d="M95.6682 107.678V98.8102H99.5041C99.8955 98.8102 100.287 98.8886 100.6 99.0456C100.952 99.2025 101.226 99.438 101.461 99.7127C101.696 99.9873 101.892 100.301 102.009 100.654C102.127 101.008 102.205 101.361 102.205 101.714C102.205 102.028 102.166 102.302 102.087 102.577C102.009 102.852 101.892 103.087 101.735 103.323C101.579 103.558 101.422 103.754 101.187 103.911C100.952 104.068 100.717 104.225 100.483 104.304L102.557 107.678H100.991L99.0736 104.578H97.0382V107.678H95.6682ZM97.0382 103.362H99.465C99.6607 103.362 99.8564 103.323 100.013 103.244C100.17 103.166 100.326 103.048 100.444 102.891C100.561 102.734 100.639 102.577 100.717 102.342C100.796 102.145 100.835 101.949 100.835 101.714C100.835 101.478 100.796 101.282 100.717 101.086C100.639 100.89 100.522 100.694 100.404 100.576C100.287 100.419 100.13 100.301 99.9738 100.223C99.8172 100.144 99.6215 100.105 99.4258 100.105H97.0773L97.0382 103.362Z" fill="black"/>
<path fill-rule="evenodd" clip-rule="evenodd" d="M112.617 106.423V107.639H106.55V98.7709H112.499V99.9874H107.92V102.499H111.873V103.676H107.92V106.383H112.617V106.423Z" fill="black"/>
<path fill-rule="evenodd" clip-rule="evenodd" d="M115.944 103.166C115.944 102.616 116.022 102.106 116.218 101.557C116.413 101.047 116.687 100.537 117.04 100.144C117.392 99.7127 117.862 99.3988 118.41 99.1241C118.958 98.8494 119.545 98.7317 120.21 98.7317C121.032 98.7317 121.697 98.9279 122.285 99.281C122.872 99.6342 123.302 100.105 123.576 100.694L122.48 101.439C122.363 101.165 122.206 100.929 122.05 100.772C121.893 100.576 121.697 100.458 121.463 100.34C121.267 100.223 121.032 100.144 120.797 100.105C120.562 100.066 120.367 100.027 120.132 100.027C119.662 100.027 119.271 100.105 118.918 100.301C118.566 100.497 118.292 100.733 118.057 101.047C117.822 101.361 117.627 101.714 117.509 102.067C117.392 102.459 117.314 102.852 117.314 103.205C117.314 103.637 117.392 104.068 117.509 104.421C117.666 104.814 117.862 105.167 118.096 105.442C118.331 105.755 118.644 105.991 118.997 106.148C119.349 106.305 119.74 106.423 120.132 106.423C120.367 106.423 120.562 106.383 120.797 106.344C121.032 106.305 121.228 106.187 121.463 106.069C121.658 105.952 121.854 105.795 122.05 105.599C122.245 105.402 122.363 105.206 122.48 104.931L123.655 105.599C123.498 105.912 123.302 106.226 123.067 106.462C122.793 106.697 122.519 106.933 122.206 107.09C121.893 107.247 121.541 107.404 121.189 107.482C120.836 107.56 120.484 107.6 120.132 107.6C119.506 107.6 118.958 107.482 118.41 107.207C117.901 106.933 117.47 106.58 117.079 106.148C116.687 105.716 116.413 105.245 116.218 104.696C116.061 104.304 115.944 103.754 115.944 103.166Z" fill="black"/>
<path fill-rule="evenodd" clip-rule="evenodd" d="M131.287 107.717C130.661 107.717 130.074 107.6 129.565 107.325C129.056 107.09 128.587 106.736 128.234 106.305C127.843 105.873 127.569 105.402 127.373 104.853C127.177 104.304 127.06 103.754 127.06 103.205C127.06 102.616 127.177 102.067 127.373 101.518C127.608 100.968 127.882 100.497 128.273 100.066C128.665 99.6342 129.095 99.3203 129.604 99.0848C130.113 98.8494 130.7 98.7317 131.287 98.7317C131.914 98.7317 132.501 98.8494 133.01 99.1241C133.518 99.3988 133.988 99.7127 134.34 100.144C134.693 100.576 135.006 101.047 135.202 101.596C135.397 102.145 135.515 102.695 135.515 103.244C135.515 103.833 135.397 104.382 135.202 104.931C135.006 105.481 134.693 105.952 134.301 106.344C133.91 106.736 133.479 107.09 132.931 107.325C132.462 107.6 131.874 107.717 131.287 107.717ZM128.469 103.244C128.469 103.676 128.547 104.068 128.665 104.461C128.782 104.853 128.978 105.206 129.213 105.481C129.448 105.795 129.761 106.03 130.113 106.187C130.465 106.383 130.857 106.462 131.287 106.462C131.718 106.462 132.148 106.383 132.462 106.187C132.775 105.991 133.088 105.755 133.323 105.442C133.558 105.128 133.753 104.775 133.871 104.421C133.988 104.029 134.066 103.637 134.066 103.244C134.066 102.813 133.988 102.42 133.871 102.028C133.753 101.635 133.558 101.282 133.323 101.008C133.088 100.733 132.775 100.458 132.422 100.301C132.07 100.144 131.679 100.027 131.287 100.027C130.857 100.027 130.426 100.105 130.074 100.301C129.722 100.497 129.448 100.733 129.174 101.047C128.9 101.361 128.743 101.675 128.626 102.067C128.508 102.459 128.469 102.852 128.469 103.244Z" fill="black"/>
<path fill-rule="evenodd" clip-rule="evenodd" d="M140.994 101.439V107.678H139.625V98.8102H140.72L145.77 105.206V98.8102H147.179V107.678H146.005L140.994 101.439Z" fill="black"/>
<path fill-rule="evenodd" clip-rule="evenodd" d="M157.043 100.89C156.964 100.811 156.847 100.694 156.69 100.615C156.534 100.497 156.338 100.419 156.142 100.341C155.947 100.262 155.712 100.184 155.438 100.105C155.203 100.066 154.929 100.027 154.655 100.027C154.068 100.027 153.637 100.144 153.363 100.341C153.089 100.537 152.933 100.851 152.933 101.243C152.933 101.478 152.972 101.635 153.05 101.792C153.128 101.91 153.285 102.067 153.442 102.146C153.637 102.263 153.833 102.342 154.107 102.42C154.381 102.499 154.694 102.577 155.046 102.695C155.477 102.813 155.908 102.93 156.26 103.048C156.612 103.166 156.925 103.362 157.16 103.519C157.395 103.715 157.591 103.951 157.747 104.225C157.904 104.5 157.943 104.853 157.943 105.245C157.943 105.677 157.865 106.069 157.669 106.423C157.473 106.776 157.277 107.011 156.964 107.207C156.651 107.404 156.338 107.561 155.947 107.639C155.555 107.717 155.125 107.796 154.694 107.796C154.029 107.796 153.363 107.678 152.737 107.482C152.111 107.286 151.563 106.972 151.054 106.58L151.68 105.363C151.798 105.481 151.954 105.599 152.15 105.716C152.346 105.834 152.58 105.991 152.854 106.069C153.128 106.187 153.402 106.266 153.716 106.344C154.029 106.423 154.342 106.462 154.694 106.462C155.242 106.462 155.673 106.383 155.947 106.187C156.26 105.991 156.377 105.716 156.377 105.324C156.377 105.088 156.338 104.931 156.221 104.775C156.103 104.618 155.947 104.5 155.751 104.382C155.555 104.264 155.281 104.186 155.007 104.068C154.694 103.99 154.381 103.872 153.99 103.794C153.559 103.676 153.168 103.558 152.854 103.44C152.541 103.323 152.267 103.166 152.032 102.97C151.798 102.773 151.641 102.577 151.524 102.342C151.406 102.106 151.367 101.792 151.367 101.439C151.367 101.008 151.445 100.615 151.602 100.301C151.758 99.9481 151.993 99.6734 152.267 99.438C152.541 99.2026 152.894 99.0456 153.285 98.9279C153.676 98.8102 154.107 98.7709 154.538 98.7709C155.125 98.7709 155.673 98.8494 156.182 99.0456C156.69 99.2418 157.121 99.4772 157.512 99.7519L157.043 100.89Z" fill="black"/>
<path fill-rule="evenodd" clip-rule="evenodd" d="M168.511 100.027H165.575V107.678H164.166V100.066H161.231V98.8494H168.511V100.027Z" fill="black"/>
<path fill-rule="evenodd" clip-rule="evenodd" d="M172.347 107.678V98.8102H176.183C176.574 98.8102 176.966 98.8886 177.279 99.0456C177.631 99.2025 177.905 99.438 178.14 99.7127C178.375 99.9873 178.57 100.301 178.688 100.654C178.805 101.008 178.884 101.361 178.884 101.714C178.884 102.028 178.844 102.302 178.766 102.577C178.688 102.852 178.57 103.087 178.414 103.323C178.257 103.558 178.101 103.754 177.866 103.911C177.631 104.068 177.396 104.225 177.161 104.304L179.236 107.678H177.67L175.752 104.578H173.717V107.678H172.347ZM173.756 103.362H176.183C176.379 103.362 176.574 103.323 176.731 103.244C176.887 103.166 177.044 103.048 177.161 102.891C177.279 102.734 177.357 102.577 177.435 102.342C177.514 102.145 177.553 101.949 177.553 101.714C177.553 101.478 177.514 101.282 177.435 101.086C177.357 100.89 177.24 100.694 177.122 100.576C177.005 100.419 176.848 100.301 176.692 100.223C176.535 100.144 176.339 100.105 176.144 100.105H173.795L173.756 103.362Z" fill="black"/>
<path fill-rule="evenodd" clip-rule="evenodd" d="M186.908 106.462C187.378 106.462 187.769 106.383 188.082 106.187C188.395 105.991 188.63 105.756 188.826 105.481C189.022 105.206 189.139 104.853 189.217 104.461C189.295 104.068 189.335 103.676 189.335 103.283V98.7709H190.744V103.283C190.744 103.872 190.665 104.461 190.548 105.01C190.391 105.559 190.196 106.03 189.883 106.423C189.569 106.815 189.178 107.129 188.708 107.364C188.239 107.6 187.652 107.717 186.947 107.717C186.242 107.717 185.655 107.6 185.146 107.364C184.677 107.129 184.285 106.776 183.972 106.383C183.659 105.991 183.463 105.481 183.307 104.971C183.189 104.421 183.111 103.872 183.111 103.323V98.8102H184.52V103.323C184.52 103.715 184.559 104.107 184.638 104.5C184.716 104.892 184.833 105.206 185.029 105.52C185.225 105.834 185.46 106.069 185.773 106.226C186.086 106.383 186.477 106.462 186.908 106.462Z" fill="black"/>
<path fill-rule="evenodd" clip-rule="evenodd" d="M208.905 98.8102H210.119L213.602 107.678H212.115L211.176 105.285H207.77L206.831 107.678H205.344L208.905 98.8102ZM210.941 104.225L209.532 100.419L208.044 104.225H210.941ZM210.275 97.6723C210.08 97.6723 209.923 97.633 209.766 97.5938C209.61 97.5545 209.493 97.4761 209.375 97.3976C209.258 97.3191 209.14 97.2799 209.023 97.2014C208.905 97.1229 208.788 97.1229 208.631 97.1229C208.475 97.1229 208.397 97.1621 208.318 97.2014C208.24 97.2406 208.162 97.3191 208.123 97.3976C208.083 97.4761 208.044 97.5545 208.044 97.5938V97.7115H207.261C207.261 97.633 207.301 97.5153 207.34 97.3583C207.379 97.2014 207.457 97.0444 207.575 96.8875C207.692 96.7305 207.809 96.5736 207.966 96.4558C208.123 96.3381 208.357 96.2596 208.592 96.2596C208.788 96.2596 208.945 96.2989 209.062 96.3381C209.179 96.3774 209.336 96.4558 209.453 96.5343C209.571 96.6128 209.688 96.652 209.806 96.7305C209.923 96.7698 210.08 96.809 210.197 96.809C210.315 96.809 210.471 96.7698 210.549 96.7305C210.628 96.6913 210.706 96.6128 210.745 96.5343C210.784 96.4558 210.823 96.3774 210.823 96.3381V96.2204H211.606C211.606 96.2596 211.567 96.3774 211.528 96.5343C211.489 96.6913 211.41 96.8482 211.293 97.0052C211.176 97.1621 211.058 97.3191 210.862 97.4368C210.784 97.5938 210.549 97.6723 210.275 97.6723Z" fill="black"/>
<path fill-rule="evenodd" clip-rule="evenodd" d="M220.687 107.717C220.061 107.717 219.474 107.6 218.965 107.325C218.456 107.05 217.986 106.736 217.634 106.305C217.243 105.873 216.969 105.402 216.773 104.853C216.577 104.304 216.46 103.754 216.46 103.205C216.46 102.616 216.577 102.067 216.773 101.518C217.008 100.968 217.282 100.497 217.673 100.066C218.065 99.6342 218.495 99.3203 219.004 99.0848C219.513 98.8494 220.1 98.7317 220.687 98.7317C221.313 98.7317 221.9 98.8494 222.409 99.1241C222.918 99.3988 223.388 99.7127 223.74 100.144C224.092 100.576 224.405 101.047 224.601 101.596C224.797 102.145 224.914 102.695 224.914 103.244C224.914 103.833 224.797 104.382 224.601 104.931C224.405 105.481 224.092 105.952 223.701 106.344C223.31 106.736 222.879 107.09 222.331 107.325C221.861 107.6 221.313 107.717 220.687 107.717ZM217.908 103.244C217.908 103.676 217.986 104.068 218.104 104.461C218.221 104.853 218.417 105.206 218.652 105.481C218.886 105.795 219.2 106.03 219.552 106.187C219.904 106.383 220.296 106.462 220.726 106.462C221.157 106.462 221.587 106.383 221.9 106.187C222.253 105.991 222.527 105.755 222.762 105.442C222.996 105.128 223.192 104.775 223.31 104.421C223.427 104.029 223.505 103.637 223.505 103.244C223.505 102.813 223.427 102.42 223.31 102.028C223.192 101.635 222.996 101.282 222.762 101.008C222.527 100.694 222.214 100.458 221.861 100.301C221.509 100.105 221.118 100.027 220.726 100.027C220.296 100.027 219.865 100.105 219.513 100.301C219.16 100.497 218.887 100.733 218.613 101.047C218.339 101.361 218.182 101.675 218.065 102.067C217.947 102.459 217.908 102.852 217.908 103.244Z" fill="black"/>
<path fill-rule="evenodd" clip-rule="evenodd" d="M198.755 107.739C198.193 107.72 197.679 107.587 197.203 107.338C196.688 107.071 196.241 106.727 195.869 106.298C195.498 105.868 195.212 105.381 195.003 104.837C194.793 104.292 194.688 103.739 194.688 103.166C194.688 102.631 194.783 102.106 194.974 101.571C195.164 101.046 195.45 100.568 195.812 100.148C196.184 99.7282 196.631 99.3844 197.165 99.1266C197.698 98.8688 198.298 98.7351 198.974 98.7351C199.784 98.7351 200.47 98.9166 201.041 99.2699C201.613 99.6232 202.051 100.091 202.337 100.664L201.241 101.399C201.118 101.132 200.965 100.912 200.794 100.721C200.622 100.54 200.432 100.397 200.222 100.282C200.013 100.177 199.803 100.101 199.575 100.053C199.346 100.005 199.136 99.986 198.927 99.986C198.46 99.986 198.051 100.081 197.708 100.263C197.355 100.454 197.069 100.702 196.831 101.008C196.593 101.313 196.412 101.657 196.298 102.048C196.174 102.43 196.117 102.812 196.117 103.194C196.117 103.624 196.184 104.035 196.327 104.426C196.469 104.818 196.669 105.161 196.917 105.467C197.174 105.763 197.469 106.002 197.822 106.183C198.174 106.364 198.555 106.45 198.965 106.45C199.184 106.45 199.403 106.422 199.632 106.374C199.86 106.317 200.079 106.231 200.289 106.116C200.498 105.992 200.698 105.839 200.87 105.658C201.051 105.476 201.194 105.257 201.308 104.999L202.47 105.658C202.327 105.992 202.127 106.288 201.87 106.536C201.613 106.794 201.318 107.004 201.003 107.176C200.679 107.348 200.336 107.482 199.975 107.577C199.775 107.625 199.565 107.663 199.365 107.692C199.765 108.236 200.403 108.828 200.022 109.573C199.489 110.623 197.841 110.079 197.327 109.85L197.67 109.067C197.67 109.067 198.603 109.754 199.222 109.296C199.841 108.876 199.213 108.36 198.755 107.739Z" fill="black"/>
<path fill-rule="evenodd" clip-rule="evenodd" d="M0.00170898 46.7291H20.9755V84.4321H0.00170898V46.7291Z" fill="#FDDB00"/>
<path fill-rule="evenodd" clip-rule="evenodd" d="M0.00170898 24.3304H20.9755V48.4115H0.00170898V24.3304Z" fill="#01D101"/>
<path fill-rule="evenodd" clip-rule="evenodd" d="M45.5896 24.3273L68.937 60.3525H45.5896V24.3273Z" fill="#FDDB00"/>
</svg>
