<svg width="238" height="48" viewBox="0 0 238 48" fill="none" xmlns="http://www.w3.org/2000/svg">
<path d="M6.29031 18.336C5.59431 18.336 4.89831 18.284 4.20231 18.18C3.50631 18.076 2.86231 17.944 2.27031 17.784C1.67831 17.616 1.18631 17.44 0.794313 17.256L1.10631 14.832C1.53831 15.04 2.05831 15.256 2.66631 15.48C3.28231 15.704 3.94631 15.892 4.65831 16.044C5.37031 16.196 6.09031 16.272 6.81831 16.272C7.89831 16.272 8.75431 16.076 9.38631 15.684C10.0263 15.284 10.3463 14.664 10.3463 13.824C10.3463 13.192 10.1863 12.676 9.86631 12.276C9.54631 11.868 9.06231 11.52 8.41431 11.232C7.77431 10.944 6.97031 10.656 6.00231 10.368C5.08231 10.096 4.23431 9.776 3.45831 9.408C2.68231 9.032 2.05831 8.532 1.58631 7.908C1.12231 7.276 0.890313 6.44 0.890313 5.4C0.890313 4.512 1.11831 3.728 1.57431 3.048C2.03831 2.36 2.71431 1.824 3.60231 1.44C4.49831 1.056 5.59431 0.863999 6.89031 0.863999C7.99431 0.863999 9.00631 0.983999 9.92631 1.224C10.8543 1.464 11.6183 1.728 12.2183 2.016L11.9783 4.44C11.0663 3.896 10.1943 3.508 9.36231 3.276C8.53831 3.044 7.68231 2.928 6.79431 2.928C5.81031 2.928 4.99431 3.112 4.34631 3.48C3.70631 3.848 3.38631 4.448 3.38631 5.28C3.38631 5.84 3.53031 6.3 3.81831 6.66C4.10631 7.012 4.53431 7.316 5.10231 7.572C5.67031 7.82 6.37831 8.072 7.22631 8.328C8.39431 8.68 9.39831 9.084 10.2383 9.54C11.0783 9.988 11.7223 10.544 12.1703 11.208C12.6183 11.864 12.8423 12.68 12.8423 13.656C12.8423 14.376 12.7063 15.024 12.4343 15.6C12.1623 16.176 11.7543 16.668 11.2103 17.076C10.6663 17.484 9.98231 17.796 9.15831 18.012C8.34231 18.228 7.38631 18.336 6.29031 18.336ZM15.5059 18V1.2H25.7539V3.264H17.7859V8.184H24.1219V10.248H17.7859V15.936H25.9699V18H15.5059ZM36.0252 18.336C34.3932 18.336 32.9372 17.98 31.6572 17.268C30.3852 16.548 29.3812 15.536 28.6452 14.232C27.9172 12.92 27.5532 11.376 27.5532 9.6C27.5532 7.824 27.9212 6.284 28.6572 4.98C29.4012 3.668 30.4172 2.656 31.7052 1.944C33.0012 1.224 34.4732 0.863999 36.1212 0.863999C36.9772 0.863999 37.7932 0.955999 38.5692 1.14C39.3452 1.324 40.0252 1.56 40.6092 1.848L40.3692 3.96C39.7692 3.672 39.1092 3.428 38.3892 3.228C37.6692 3.028 36.9052 2.928 36.0972 2.928C34.7772 2.928 33.6692 3.228 32.7732 3.828C31.8772 4.42 31.1972 5.22 30.7332 6.228C30.2772 7.236 30.0492 8.36 30.0492 9.6C30.0492 10.84 30.2732 11.964 30.7212 12.972C31.1772 13.98 31.8492 14.784 32.7372 15.384C33.6332 15.976 34.7372 16.272 36.0492 16.272C36.8812 16.272 37.6492 16.184 38.3532 16.008C39.0652 15.824 39.7372 15.576 40.3692 15.264L40.6092 17.376C40.0092 17.648 39.3332 17.876 38.5812 18.06C37.8292 18.244 36.9772 18.336 36.0252 18.336ZM43.3263 18V1.2H48.7743C49.9423 1.2 50.9623 1.38 51.8343 1.74C52.7063 2.1 53.3823 2.656 53.8623 3.408C54.3423 4.16 54.5823 5.128 54.5823 6.312C54.5823 7.464 54.3303 8.428 53.8263 9.204C53.3303 9.98 52.6063 10.592 51.6543 11.04L55.4223 18H52.6383L49.2303 11.448C49.2063 11.448 49.1863 11.448 49.1703 11.448C49.1543 11.448 49.1343 11.448 49.1103 11.448H45.7263V18H43.3263ZM45.7263 9.408H48.7503C49.8943 9.408 50.7543 9.132 51.3303 8.58C51.9143 8.028 52.2063 7.272 52.2063 6.312C52.2063 5.336 51.9143 4.58 51.3303 4.044C50.7543 3.508 49.8943 3.24 48.7503 3.24H45.7263V9.408ZM57.7872 18V1.2H68.0352V3.264H60.0672V8.184H66.4032V10.248H60.0672V15.936H68.2512V18H57.7872ZM74.4123 18V3.264H69.5163V1.2H81.5883V3.264H76.6923V18H74.4123ZM91.6561 13.464H84.4561V11.4H91.6561V13.464ZM87.7201 3.432H88.3921L83.2321 18H80.8321L86.8561 1.2H89.2561L95.2801 18H92.8801L87.7201 3.432ZM97.3731 18V1.2H102.821C103.989 1.2 105.009 1.38 105.881 1.74C106.753 2.1 107.429 2.656 107.909 3.408C108.389 4.16 108.629 5.128 108.629 6.312C108.629 7.464 108.377 8.428 107.873 9.204C107.377 9.98 106.653 10.592 105.701 11.04L109.469 18H106.685L103.277 11.448C103.253 11.448 103.233 11.448 103.217 11.448C103.201 11.448 103.181 11.448 103.157 11.448H99.7731V18H97.3731ZM99.7731 9.408H102.797C103.941 9.408 104.801 9.132 105.377 8.58C105.961 8.028 106.253 7.272 106.253 6.312C106.253 5.336 105.961 4.58 105.377 4.044C104.801 3.508 103.941 3.24 102.797 3.24H99.7731V9.408ZM111.834 18V1.2H114.114V18H111.834ZM127.023 13.464H119.823V11.4H127.023V13.464ZM123.087 3.432H123.759L118.599 18H116.199L122.223 1.2H124.623L130.647 18H128.247L123.087 3.432ZM138.131 18V1.2H148.379V3.264H140.411V8.184H146.747V10.248H140.411V15.936H148.595V18H138.131ZM156.22 18.336C155.524 18.336 154.828 18.284 154.132 18.18C153.436 18.076 152.792 17.944 152.2 17.784C151.608 17.616 151.116 17.44 150.724 17.256L151.036 14.832C151.468 15.04 151.988 15.256 152.596 15.48C153.212 15.704 153.876 15.892 154.588 16.044C155.3 16.196 156.02 16.272 156.748 16.272C157.828 16.272 158.684 16.076 159.316 15.684C159.956 15.284 160.276 14.664 160.276 13.824C160.276 13.192 160.116 12.676 159.796 12.276C159.476 11.868 158.992 11.52 158.344 11.232C157.704 10.944 156.9 10.656 155.932 10.368C155.012 10.096 154.164 9.776 153.388 9.408C152.612 9.032 151.988 8.532 151.516 7.908C151.052 7.276 150.82 6.44 150.82 5.4C150.82 4.512 151.048 3.728 151.504 3.048C151.968 2.36 152.644 1.824 153.532 1.44C154.428 1.056 155.524 0.863999 156.82 0.863999C157.924 0.863999 158.936 0.983999 159.856 1.224C160.784 1.464 161.548 1.728 162.148 2.016L161.908 4.44C160.996 3.896 160.124 3.508 159.292 3.276C158.468 3.044 157.612 2.928 156.724 2.928C155.74 2.928 154.924 3.112 154.276 3.48C153.636 3.848 153.316 4.448 153.316 5.28C153.316 5.84 153.46 6.3 153.748 6.66C154.036 7.012 154.464 7.316 155.032 7.572C155.6 7.82 156.308 8.072 157.156 8.328C158.324 8.68 159.328 9.084 160.168 9.54C161.008 9.988 161.652 10.544 162.1 11.208C162.548 11.864 162.772 12.68 162.772 13.656C162.772 14.376 162.636 15.024 162.364 15.6C162.092 16.176 161.684 16.668 161.14 17.076C160.596 17.484 159.912 17.796 159.088 18.012C158.272 18.228 157.316 18.336 156.22 18.336ZM165.436 18V1.2H170.98C172.108 1.2 173.1 1.38 173.956 1.74C174.812 2.1 175.476 2.68 175.948 3.48C176.428 4.28 176.668 5.336 176.668 6.648C176.668 7.936 176.428 8.984 175.948 9.792C175.476 10.592 174.812 11.18 173.956 11.556C173.1 11.932 172.108 12.12 170.98 12.12H167.836V18H165.436ZM167.836 10.08H170.644C171.868 10.08 172.784 9.804 173.392 9.252C174.008 8.692 174.316 7.832 174.316 6.672C174.316 5.504 174.024 4.64 173.44 4.08C172.864 3.52 171.932 3.24 170.644 3.24H167.836V10.08ZM179.17 18V1.2H189.418V3.264H181.45V8.184H187.786V10.248H181.45V15.936H189.634V18H179.17ZM199.689 18.336C198.057 18.336 196.601 17.98 195.321 17.268C194.049 16.548 193.045 15.536 192.309 14.232C191.581 12.92 191.217 11.376 191.217 9.6C191.217 7.824 191.585 6.284 192.321 4.98C193.065 3.668 194.081 2.656 195.369 1.944C196.665 1.224 198.137 0.863999 199.785 0.863999C200.641 0.863999 201.457 0.955999 202.233 1.14C203.009 1.324 203.689 1.56 204.273 1.848L204.033 3.96C203.433 3.672 202.773 3.428 202.053 3.228C201.333 3.028 200.569 2.928 199.761 2.928C198.441 2.928 197.333 3.228 196.437 3.828C195.541 4.42 194.861 5.22 194.397 6.228C193.941 7.236 193.713 8.36 193.713 9.6C193.713 10.84 193.937 11.964 194.385 12.972C194.841 13.98 195.513 14.784 196.401 15.384C197.297 15.976 198.401 16.272 199.713 16.272C200.545 16.272 201.313 16.184 202.017 16.008C202.729 15.824 203.401 15.576 204.033 15.264L204.273 17.376C203.673 17.648 202.997 17.876 202.245 18.06C201.493 18.244 200.641 18.336 199.689 18.336ZM206.99 18V1.2H209.27V18H206.99ZM222.18 13.464H214.98V11.4H222.18V13.464ZM218.243 3.432H218.916L213.756 18H211.356L217.38 1.2H219.78L225.804 18H223.404L218.243 3.432ZM227.897 18V1.2H230.177V15.936H237.881V18H227.897ZM99.67 47V30.2H105.886C107.51 30.2 108.95 30.532 110.206 31.196C111.462 31.86 112.446 32.82 113.158 34.076C113.878 35.324 114.238 36.832 114.238 38.6C114.238 40.368 113.878 41.88 113.158 43.136C112.446 44.384 111.462 45.34 110.206 46.004C108.95 46.668 107.51 47 105.886 47H99.67ZM101.95 44.936H105.886C107.166 44.936 108.238 44.672 109.102 44.144C109.974 43.608 110.63 42.864 111.07 41.912C111.518 40.96 111.742 39.856 111.742 38.6C111.742 37.344 111.518 36.24 111.07 35.288C110.63 34.336 109.974 33.596 109.102 33.068C108.238 32.532 107.166 32.264 105.886 32.264H101.95V44.936ZM125.898 42.464H118.698V40.4H125.898V42.464ZM121.962 32.432H122.634L117.474 47H115.074L121.098 30.2H123.498L129.522 47H127.122L121.962 32.432ZM144.542 47.336C142.838 47.336 141.338 46.976 140.042 46.256C138.746 45.528 137.734 44.512 137.006 43.208C136.286 41.896 135.926 40.36 135.926 38.6C135.926 36.84 136.298 35.308 137.042 34.004C137.794 32.692 138.826 31.676 140.138 30.956C141.45 30.228 142.95 29.864 144.638 29.864C145.526 29.864 146.338 29.96 147.074 30.152C147.81 30.336 148.446 30.568 148.982 30.848L148.646 33.776C148.038 33.496 147.41 33.268 146.762 33.092C146.122 32.908 145.406 32.816 144.614 32.816C143.438 32.816 142.454 33.064 141.662 33.56C140.878 34.056 140.286 34.74 139.886 35.612C139.486 36.484 139.286 37.48 139.286 38.6C139.286 39.72 139.482 40.716 139.874 41.588C140.266 42.46 140.85 43.144 141.626 43.64C142.41 44.136 143.382 44.384 144.542 44.384C145.35 44.384 146.074 44.296 146.714 44.12C147.354 43.944 147.998 43.712 148.646 43.424L148.982 46.352C148.35 46.648 147.654 46.884 146.894 47.06C146.142 47.244 145.358 47.336 144.542 47.336ZM158.327 47.336C156.751 47.336 155.447 47.024 154.415 46.4C153.391 45.776 152.627 44.9 152.123 43.772C151.619 42.644 151.367 41.32 151.367 39.8V30.2H154.439V39.008C154.439 39.808 154.491 40.54 154.595 41.204C154.699 41.86 154.887 42.428 155.159 42.908C155.439 43.38 155.835 43.744 156.347 44C156.859 44.256 157.519 44.384 158.327 44.384C159.135 44.384 159.795 44.256 160.307 44C160.819 43.744 161.211 43.38 161.483 42.908C161.763 42.428 161.955 41.86 162.059 41.204C162.163 40.54 162.215 39.808 162.215 39.008V30.2H165.287V39.8C165.287 41.32 165.035 42.644 164.531 43.772C164.027 44.9 163.259 45.776 162.227 46.4C161.203 47.024 159.903 47.336 158.327 47.336ZM168.786 47V30.2H171.858V44.264H178.77V47H168.786ZM182.573 47V33.176H177.821V30.2H190.397V33.176H185.645V47H182.573ZM199.366 47.336C197.79 47.336 196.486 47.024 195.454 46.4C194.43 45.776 193.666 44.9 193.162 43.772C192.658 42.644 192.406 41.32 192.406 39.8V30.2H195.478V39.008C195.478 39.808 195.53 40.54 195.634 41.204C195.738 41.86 195.926 42.428 196.198 42.908C196.478 43.38 196.874 43.744 197.386 44C197.898 44.256 198.558 44.384 199.366 44.384C200.174 44.384 200.834 44.256 201.346 44C201.858 43.744 202.25 43.38 202.522 42.908C202.802 42.428 202.994 41.86 203.098 41.204C203.202 40.54 203.254 39.808 203.254 39.008V30.2H206.326V39.8C206.326 41.32 206.074 42.644 205.57 43.772C205.066 44.9 204.298 45.776 203.266 46.4C202.242 47.024 200.942 47.336 199.366 47.336ZM209.825 47V30.2H215.969C217.129 30.2 218.141 30.384 219.005 30.752C219.877 31.12 220.553 31.68 221.033 32.432C221.513 33.184 221.753 34.136 221.753 35.288C221.753 36.52 221.489 37.5 220.961 38.228C220.441 38.948 219.753 39.52 218.897 39.944L222.689 47H219.257L216.017 40.76C215.993 40.76 215.973 40.76 215.957 40.76C215.941 40.76 215.921 40.76 215.897 40.76H212.897V47H209.825ZM212.897 38.192H215.153C216.417 38.192 217.297 37.936 217.793 37.424C218.289 36.904 218.537 36.248 218.537 35.456C218.537 34.616 218.293 33.96 217.805 33.488C217.317 33.008 216.473 32.768 215.273 32.768H212.897V38.192ZM234.016 43.016H226.984V40.328H234.016V43.016ZM230.104 33.2H230.896L226.048 47H223.072L229.048 30.2H231.952L237.928 47H234.952L230.104 33.2Z" fill="black"/>
</svg>
