<svg width="40" height="40" viewBox="0 0 40 40" fill="none" xmlns="http://www.w3.org/2000/svg">
<path d="M37.7598 0.408203H2.83219C1.63473 0.408203 0.665474 1.37364 0.665474 2.56638V37.3563C0.665474 38.5491 1.63473 39.5145 2.83219 39.5145H21.6382V24.3902H16.5392V18.4729H21.6382V14.115C21.6382 9.06292 24.7349 6.31326 29.2598 6.31326C31.4265 6.31326 33.2889 6.47457 33.8312 6.54545V11.8248L30.7124 11.8272C28.2513 11.8272 27.7752 12.9931 27.7752 14.7016V18.4729H33.6595L32.8939 24.3926H27.7752V39.5145H37.7623C38.9573 39.5145 39.9265 38.5491 39.9265 37.3563V2.56638C39.9265 1.37364 38.9573 0.408203 37.7598 0.408203Z" fill="white"/>
</svg>
