<svg width="41" height="40" viewBox="0 0 41 40" fill="none" xmlns="http://www.w3.org/2000/svg">
<path d="M20.4414 10.1848C15.0209 10.1848 10.6261 14.5622 10.6261 19.9614C10.6261 25.3605 15.0209 29.7379 20.4414 29.7379C25.8618 29.7379 30.2566 25.3605 30.2566 19.9614C30.2566 14.5622 25.8618 10.1848 20.4414 10.1848ZM20.4414 24.8497C17.7348 24.8497 15.5337 22.6573 15.5337 19.9614C15.5337 17.2655 17.7348 15.0731 20.4414 15.0731C23.1479 15.0731 25.349 17.2655 25.349 19.9614C25.349 22.6573 23.1479 24.8497 20.4414 24.8497ZM27.8028 0.408203H13.0799C6.30003 0.408203 0.810848 5.87576 0.810848 12.6289V27.2938C0.810848 34.0445 6.30003 39.5145 13.0799 39.5145H27.8028C34.5803 39.5145 40.0719 34.0445 40.0719 27.2938V12.6289C40.0719 5.87576 34.5803 0.408203 27.8028 0.408203ZM35.1643 27.2938C35.1643 31.334 31.859 34.6262 27.8028 34.6262H13.0799C9.02377 34.6262 5.71848 31.334 5.71848 27.2938V12.6289C5.71848 8.58876 9.02377 5.29649 13.0799 5.29649H27.8028C31.859 5.29649 35.1643 8.58876 35.1643 12.6289V27.2938ZM30.2566 7.74064C28.8997 7.74064 27.8028 8.83317 27.8028 10.1848C27.8028 11.5364 28.8997 12.6289 30.2566 12.6289C31.6136 12.6289 32.7104 11.5364 32.7104 10.1848C32.7104 8.83317 31.6136 7.74064 30.2566 7.74064Z" fill="white"/>
</svg>
