<svg width="39" height="25" viewBox="0 0 39 25" fill="none" xmlns="http://www.w3.org/2000/svg">
<path d="M38.9895 3.53332C37.5883 4.01959 36.0849 4.34935 34.5054 4.49654C36.1182 3.74012 37.3552 2.54029 37.938 1.11316C36.4298 1.81368 34.7575 2.32231 32.9781 2.59804C31.5532 1.40939 29.5241 0.666016 27.2785 0.666016C22.9657 0.666016 19.4688 3.40476 19.4688 6.78069C19.4688 7.25951 19.5378 7.72714 19.671 8.17429C13.1815 7.91904 7.42713 5.48398 3.5758 1.78387C2.90497 2.68747 2.5196 3.73826 2.5196 4.85984C2.5196 6.98191 3.89694 8.85432 5.99269 9.94982C4.71526 9.91814 3.51157 9.64241 2.45775 9.18408V9.26047C2.45775 12.2228 5.15058 14.6951 8.72121 15.2578C8.06465 15.3975 7.37479 15.4739 6.66352 15.4739C6.15921 15.4739 5.67155 15.4348 5.1934 15.364C6.18776 17.7934 9.0709 19.5615 12.4869 19.6118C9.81547 21.2514 6.44705 22.2295 2.78841 22.2295C2.15802 22.2295 1.53714 22.1997 0.925781 22.1438C4.38222 23.8783 8.48571 24.8918 12.8961 24.8918C27.2594 24.8918 35.1143 15.5726 35.1143 7.49053C35.1143 7.22597 35.1072 6.96141 35.0906 6.69872C36.6178 5.8361 37.9428 4.75923 38.9895 3.53332Z" fill="white"/>
</svg>
