<svg width="40" height="38" viewBox="0 0 40 38" fill="none" xmlns="http://www.w3.org/2000/svg">
<g clip-path="url(#clip0_816_3411)">
<path d="M1.43215 37.737C1.21169 37.737 0.997218 37.6541 0.838164 37.5012C0.628487 37.2995 0.547612 37.0067 0.626391 36.7331L3.17875 27.8714C1.5897 25.1393 0.751897 22.0487 0.753095 18.9114C0.757588 8.70858 9.4903 0.408203 20.2203 0.408203C25.4248 0.410197 30.3151 2.3377 33.9907 5.83499C37.6657 9.33257 39.6888 13.9819 39.6873 18.9262C39.6825 29.1293 30.9498 37.4302 20.2203 37.4302C20.2203 37.4302 20.2122 37.4302 20.212 37.4302C17.0779 37.4291 13.9708 36.7029 11.2043 35.3273L1.64392 37.711C1.57383 37.7284 1.50254 37.737 1.43215 37.737Z" fill="white"/>
<path d="M1.4321 36.9427L4.07523 27.7658C2.44484 25.0799 1.58726 22.0331 1.58846 18.9118C1.59265 9.147 9.95037 1.20264 20.2203 1.20264C25.2041 1.20463 29.882 3.04896 33.3997 6.39645C36.9172 9.74393 38.8537 14.1936 38.8519 18.926C38.8474 28.6905 30.4885 36.636 20.2203 36.636C20.2197 36.636 20.2206 36.636 20.2203 36.636H20.2123C17.0941 36.6349 14.0304 35.8913 11.3091 34.4801L1.4321 36.9427ZM11.7665 31.2742L12.3323 31.5928C14.7094 32.9342 17.4349 33.6437 20.2144 33.6451H20.2203C28.7554 33.6451 35.7023 27.0412 35.7059 18.9249C35.7074 14.9916 34.0983 11.2929 31.1745 8.51077C28.2504 5.7286 24.3627 4.19555 20.226 4.19384C11.6841 4.19384 4.7375 10.7968 4.73421 18.9129C4.73301 21.6942 5.55135 24.4026 7.10176 26.7465L7.47019 27.3035L5.90541 32.7352L11.7665 31.2742Z" fill="white"/>
<path d="M2.08008 36.3243L4.63184 27.4646C3.05747 24.8718 2.22985 21.9302 2.23075 18.9173C2.23464 9.49056 10.3033 1.82129 20.2171 1.82129C25.0289 1.82328 29.545 3.60383 32.9402 6.8354C36.3364 10.067 38.2055 14.3626 38.2037 18.9307C38.1995 28.3577 30.1306 36.0278 20.218 36.0278C20.2171 36.0278 20.2183 36.0278 20.218 36.0278H20.2099C17.1998 36.0267 14.2419 35.3084 11.615 33.9471L2.08008 36.3243Z" fill="black"/>
<path d="M1.4321 36.9427L4.07523 27.7658C2.44484 25.0799 1.58726 22.0331 1.58846 18.9118C1.59265 9.147 9.95037 1.20264 20.2203 1.20264C25.2041 1.20463 29.882 3.04896 33.3997 6.39645C36.9172 9.74393 38.8537 14.1936 38.8519 18.926C38.8474 28.6905 30.4885 36.636 20.2203 36.636C20.2197 36.636 20.2206 36.636 20.2203 36.636H20.2123C17.0941 36.6349 14.0304 35.8913 11.3091 34.4801L1.4321 36.9427ZM11.7665 31.2742L12.3323 31.5928C14.7094 32.9342 17.4349 33.6437 20.2144 33.6451H20.2203C28.7554 33.6451 35.7023 27.0412 35.7059 18.9249C35.7074 14.9916 34.0983 11.2929 31.1745 8.51077C28.2504 5.7286 24.3627 4.19555 20.226 4.19384C11.6841 4.19384 4.7375 10.7968 4.73421 18.9129C4.73301 21.6942 5.55135 24.4026 7.10176 26.7465L7.47019 27.3035L5.90541 32.7352L11.7665 31.2742Z" fill="white"/>
<path fill-rule="evenodd" clip-rule="evenodd" d="M15.5638 11.5081C15.2151 10.7711 14.8479 10.7563 14.516 10.7435C14.2446 10.7323 13.934 10.7329 13.624 10.7329C13.3137 10.7329 12.8092 10.844 12.3827 11.2868C11.9559 11.7297 10.7529 12.8005 10.7529 14.9784C10.7529 17.1565 12.4213 19.2609 12.6541 19.5565C12.8868 19.8518 15.8747 24.4639 20.6065 26.2381C24.5391 27.7128 25.3392 27.4195 26.1929 27.3457C27.0465 27.272 28.9471 26.2749 29.335 25.2413C29.7232 24.2078 29.7232 23.3221 29.6067 23.1367C29.4902 22.9524 29.1798 22.8416 28.7144 22.6204C28.2489 22.3991 25.9601 21.3279 25.5333 21.1804C25.1064 21.0326 24.7961 20.9591 24.4858 21.4023C24.1752 21.8449 23.2838 22.8416 23.0121 23.1367C22.7404 23.4326 22.4687 23.4696 22.0032 23.248C21.5378 23.0262 20.0383 22.5591 18.2596 21.0511C16.8758 19.878 15.9412 18.429 15.6695 17.9858C15.3981 17.5433 15.665 17.3246 15.8741 17.0828C16.2506 16.6473 16.8823 15.8644 17.0375 15.5693C17.1927 15.2737 17.1151 15.0154 16.9989 14.7938C16.8823 14.5726 15.9774 12.3836 15.5638 11.5081Z" fill="white"/>
</g>
<defs>
<clipPath id="clip0_816_3411">
<rect width="39.261" height="37.3288" fill="white" transform="translate(0.520081 0.408203)"/>
</clipPath>
</defs>
</svg>
